<svg width="800" height="246" viewBox="0 0 800 246" fill="none" xmlns="http://www.w3.org/2000/svg">
<path d="M57.935 241.928H0L66.193 0H122.991L99.7399 84.6181L97.4663 92.0825L95.0854 100.255C94.7422 101.22 94.3561 102.421 93.8842 103.901C93.4123 105.381 92.8332 107.183 92.1468 109.285C99.6541 100.019 106.69 93.4123 113.21 89.4871C119.731 85.5618 127.152 83.6099 135.475 83.6099C148.752 83.6099 157.975 88.5862 163.123 98.5173C168.271 108.47 169.365 123.184 166.426 142.682C161.858 172.99 152.484 197.657 138.327 216.682C124.278 235.622 108.32 245.081 90.4523 245.081C83.1809 245.081 77.4754 243.301 73.3357 239.783C69.1101 236.158 65.4423 229.938 62.375 221.144C61.753 224.683 61.1953 227.3 60.7448 229.037C59.8225 233.799 58.9002 238.11 57.935 241.928ZM106.068 151.004C108.041 137.898 105.36 131.356 97.9811 131.356C93.0048 131.356 88.1358 135.754 83.374 144.548C78.6337 153.728 75.3305 164.582 73.4429 177.108C71.5768 189.442 74.0006 195.598 80.6928 195.598C86.141 195.598 91.2245 191.436 95.9219 183.114C100.662 175.113 104.051 164.389 106.068 151.004Z" fill="#FF3300"/>
<path d="M294.115 241.928H237.317L239.719 234.614C240.92 231.075 242.057 227.75 243.151 224.64C244.245 221.53 245.317 218.591 246.411 215.824C231.225 235.322 215.331 245.081 198.686 245.081C186.932 245.081 178.481 239.912 173.355 229.595C168.335 219.17 167.199 204.778 169.966 186.438C174.448 156.71 183.693 132.129 197.721 112.717C211.835 93.305 227.493 83.6099 244.717 83.6099C259.731 83.6099 269.362 92.876 273.652 111.43C273.974 109.328 274.553 106.454 275.39 102.829L277.32 93.7983C277.62 92.3612 278.114 90.0661 278.779 86.9131H336.435L294.115 241.928ZM262.069 146.414C263.635 136.097 261.34 130.927 255.227 130.927C249.114 130.927 243.795 135.475 239.269 144.548C233.606 156.023 229.895 167.627 228.136 179.403C226.313 191.543 228.78 197.614 235.579 197.614C242.186 197.614 247.999 191.308 253.061 178.674C257.544 167.113 260.568 156.366 262.069 146.414Z" fill="#FF3300"/>
<path d="M389.007 241.928L383.602 181.698C383.43 180.261 383.345 178.116 383.366 175.242C383.366 172.368 383.387 168.636 383.409 164.045L362.045 241.907H305.397L371.59 0H428.388L385.382 156.753C387.699 152.742 390.123 148.752 392.632 144.784C395.142 140.816 397.759 136.783 400.483 132.665L431.477 86.9132H492.715L435.81 158.04L454.128 241.928H389.007Z" fill="#FF3300"/>
<path d="M537.823 189.442L592.863 190.578C584.025 208.553 572.571 222.131 558.458 231.311C544.344 240.491 528.128 245.082 509.768 245.082C490.356 245.082 476.135 239.59 467.083 228.587C458.139 217.583 455.179 202.011 458.225 181.827C462.407 154.093 473.818 130.82 492.436 111.988C511.248 93.1551 532.268 83.7388 555.498 83.7388C573.858 83.7388 587.436 89.7232 596.252 101.671C605.175 113.532 608.092 129.683 605.003 150.146C604.467 153.685 603.673 157.611 602.579 161.901C601.507 166.212 600.155 171.081 598.59 176.529H515.409C515.108 177.859 514.851 179.103 514.637 180.261C514.422 181.398 514.25 182.363 514.122 183.135C512.384 194.611 515.066 200.338 522.144 200.338C528.622 200.338 533.855 196.713 537.823 189.442ZM551.036 145.556C551.165 145.277 551.294 144.848 551.379 144.269L551.551 143.132L551.808 141.416C553.374 131.099 550.5 125.93 543.25 125.93C534.842 125.93 528.643 132.472 524.653 145.578H551.036V145.556Z" fill="#FF3300"/>
<path d="M675.872 241.928C676.837 238.11 678.189 233.799 679.969 229.016C680.291 228.158 680.655 227.085 681.106 225.798C681.535 224.511 682.092 222.946 682.736 221.144C674.692 230.131 667.614 236.394 661.544 239.934C655.388 243.365 648.61 245.103 641.253 245.103C628.061 245.103 618.709 240.127 613.24 230.195C607.749 220.243 606.419 206 609.229 187.468C613.54 158.876 622.399 134.638 635.826 114.755C649.661 94.0129 666.005 83.6314 684.838 83.6314C693.353 83.6314 699.66 85.5404 703.756 89.3584C708.153 93.1764 711.65 99.8257 714.224 109.285C714.631 107.183 714.996 105.381 715.318 103.901C715.639 102.421 715.918 101.198 716.154 100.255L718.256 92.0825L719.951 84.6181L743.202 0H800L733.657 241.928H675.872ZM670.209 176.829C668.322 189.356 671.003 195.619 678.274 195.619C683.336 195.619 688.248 191.372 692.967 182.857C697.708 174.255 701.054 163.552 702.984 150.725C704.936 137.813 702.705 131.356 696.292 131.356C690.651 131.356 685.417 135.668 680.57 144.269C675.593 153.171 672.14 164.024 670.209 176.829Z" fill="#FF3300"/>
</svg>
