<svg width="21" height="20" viewBox="0 0 21 20" fill="none" xmlns="http://www.w3.org/2000/svg">
<path d="M15.298 0H5.84209C2.94202 0 0.570068 2.42203 0.570068 5.38129V14.6142C0.570068 17.5734 2.94202 19.9954 5.84209 19.9954H15.298C18.1981 19.9954 20.5701 17.5734 20.5701 14.6142V5.38129C20.5701 2.42203 18.1981 0 15.298 0ZM18.7809 14.4776C18.7809 16.5263 17.1373 18.2062 15.1296 18.2062H6.01054C4.0028 18.2062 2.35928 16.5308 2.35928 14.4776V5.51787C2.35928 3.46916 4.0028 1.78921 6.01054 1.78921H15.1296C17.1373 1.78921 18.7809 3.4646 18.7809 5.51787V14.4776Z" fill="white"/>
<path d="M10.5726 4.8623C7.79542 4.8623 5.54639 7.16142 5.54639 9.99775C5.54639 12.8341 7.79542 15.1332 10.5726 15.1332C13.3497 15.1332 15.5987 12.8341 15.5987 9.99775C15.5987 7.16142 13.3452 4.8623 10.5726 4.8623ZM10.5726 13.3121C8.78336 13.3121 7.33104 11.8279 7.33104 9.99775C7.33104 8.16756 8.78336 6.68338 10.5726 6.68338C12.3618 6.68338 13.8141 8.16756 13.8141 9.99775C13.8141 11.8279 12.3618 13.3121 10.5726 13.3121Z" fill="white"/>
<path d="M15.8673 5.7501C16.4933 5.7501 17.0009 5.23033 17.0009 4.58916C17.0009 3.94799 16.4933 3.42822 15.8673 3.42822C15.2412 3.42822 14.7336 3.94799 14.7336 4.58916C14.7336 5.23033 15.2412 5.7501 15.8673 5.7501Z" fill="white"/>
</svg>
